<svg width="26" height="32" viewBox="0 0 26 32" fill="none" xmlns="http://www.w3.org/2000/svg">
<path fill-rule="evenodd" clip-rule="evenodd" d="M15.2541 11.6453C16.0553 11.2323 17.0747 10.6244 18.0954 9.79138C18.3106 10.2534 18.3341 10.6566 18.2233 10.9821C18.1447 11.2116 17.9966 11.4111 17.802 11.5699C17.5911 11.7415 17.3278 11.8664 17.0368 11.9339C16.4845 12.0625 15.8397 11.9874 15.2541 11.6453ZM15.393 15.8771L16.4536 16.5104C14.2882 17.7652 13.6995 20.0951 13.0002 22.3644C12.301 20.0951 11.7122 17.7652 9.5469 16.5104L10.6074 15.8771C10.71 15.837 10.7977 15.7644 10.8579 15.6696C10.9182 15.5749 10.9478 15.4628 10.9427 15.3496C10.8455 13.2243 11.4006 12.2844 12.1493 11.6943C12.4178 11.483 12.711 11.3768 13.0002 11.3768C13.2894 11.3768 13.5826 11.483 13.8512 11.6943C14.5999 12.2844 15.155 13.2243 15.0578 15.3496C15.0527 15.4628 15.0823 15.5749 15.1425 15.6696C15.2028 15.7644 15.2905 15.837 15.393 15.8771ZM13.0002 2C14.2261 2.03403 15.455 2.28007 16.5216 2.7587C17.2602 3.09057 17.9493 3.52894 18.5734 4.05315C18.8552 4.2898 19.0872 4.51842 19.3428 4.78161C20.0323 4.80625 21.0398 4.01443 21.5076 3.27352C20.7026 6.00197 17.0291 9.22403 14.4859 10.4569C14.4848 10.4565 14.4841 10.4559 14.4834 10.4553C14.027 10.095 13.5136 9.91485 13.0002 9.91485C12.4868 9.91485 11.9735 10.095 11.5171 10.4553C11.5163 10.4558 11.5156 10.4566 11.5146 10.4569C8.97132 9.22403 5.29793 6.00197 4.49292 3.27352C4.96059 4.01443 5.96814 4.80625 6.65756 4.78161C6.91327 4.51851 7.14532 4.2898 7.42704 4.05315C8.05107 3.52894 8.74023 3.09057 9.4788 2.7587C10.5455 2.28007 11.7744 2.03403 13.0002 2ZM10.7462 11.6453C9.94517 11.2323 8.92566 10.6244 7.9051 9.79138C7.6899 10.2534 7.66633 10.6566 7.77712 10.9821C7.85578 11.2116 8.00384 11.4111 8.19844 11.5699C8.40936 11.7415 8.67266 11.8664 8.96372 11.9339C9.51599 12.0625 10.1607 11.9874 10.7462 11.6453Z" fill="#002E20"/>
<path fill-rule="evenodd" clip-rule="evenodd" d="M19.213 8.77065C19.7749 8.18444 20.27 7.53558 20.668 6.95659L20.8702 7.35002C21.5212 8.69637 21.8594 10.0373 21.8594 11.5464L21.858 13.9411L21.8702 15.1825C21.9173 18.2301 22.5552 21.3135 24 24.1353L20.977 21.6151L18.838 25.2036L16.5909 23.0166L13 29.0412L9.40911 23.0167L7.16206 25.2037L5.02308 21.6152L2 24.1354C3.44484 21.3136 4.08267 18.2302 4.1299 15.1826L4.14212 13.9412L4.14072 11.5465C4.14072 10.0373 4.47884 8.69637 5.12994 7.35011L5.33204 6.95668C5.73013 7.53567 6.22514 8.18444 6.7871 8.77074L6.61162 9.14756C6.27071 9.87945 6.15783 10.6978 6.4234 11.4761C6.5946 11.9774 6.90705 12.4073 7.30986 12.7354C7.70097 13.0541 8.16384 13.2689 8.64845 13.3818C8.96413 13.4552 9.28575 13.4855 9.60528 13.4752C9.53072 13.9121 9.49816 14.3653 9.49606 14.827L6.64444 16.5298L8.84497 17.8051C9.02085 17.907 9.18828 18.0238 9.34556 18.1543C11.1598 19.8383 12.2505 24.8201 13.0001 27.2535C13.7497 24.8201 14.8404 19.8383 16.6547 18.1543C16.812 18.0238 16.9794 17.907 17.1553 17.8051L19.3558 16.5298L16.5041 14.827C16.502 14.3653 16.4695 13.9121 16.3949 13.4752C16.7144 13.4855 17.036 13.4552 17.3517 13.3818C17.8363 13.2689 18.2993 13.0541 18.6903 12.7354C19.093 12.4073 19.4056 11.9774 19.5767 11.4761C19.8423 10.6978 19.7294 9.87954 19.3886 9.14756L19.2131 8.77074L19.213 8.77065Z" fill="#002E20"/>
</svg>
