<svg width="68" height="82" viewBox="0 0 68 82" fill="none" xmlns="http://www.w3.org/2000/svg">
<g clip-path="url(#clip0_3_56)">
<path fill-rule="evenodd" clip-rule="evenodd" d="M40.8341 29.4911C43.2632 28.2702 46.3542 26.4729 49.4488 24.0104C50.1013 25.3762 50.1727 26.5681 49.8366 27.5305C49.5983 28.2088 49.1494 28.7987 48.5591 29.2681C47.9199 29.7753 47.1215 30.1446 46.239 30.3441C44.5645 30.7244 42.6094 30.5024 40.8341 29.4911ZM41.2552 42.0012L44.4708 43.8734C37.9052 47.5828 36.1203 54.4704 34 61.179C31.88 54.4704 30.0949 47.5828 23.5295 43.8734L26.7451 42.0012C27.0562 41.8827 27.3221 41.668 27.5046 41.3878C27.6872 41.1077 27.7772 40.7765 27.7616 40.4416C27.4669 34.1588 29.1499 31.3805 31.42 29.636C32.2342 29.0111 33.1231 28.6973 34 28.6973C34.877 28.6973 35.7659 29.0111 36.5803 29.636C38.8504 31.3805 40.5334 34.1588 40.2388 40.4416C40.2232 40.7765 40.3131 41.1077 40.4957 41.3878C40.6783 41.668 40.9442 41.8827 41.2552 42.0012ZM34 0.977295C37.717 1.07789 41.4432 1.80523 44.677 3.22017C46.9164 4.20126 49.0059 5.4972 50.898 7.04688C51.7525 7.74648 52.456 8.42233 53.2311 9.20038C55.3214 9.27322 58.3763 6.93242 59.7946 4.7421C57.3538 12.808 46.2157 22.3332 38.5047 25.9779C38.5015 25.9766 38.4994 25.9747 38.497 25.9731C37.1132 24.908 35.5567 24.3754 34 24.3754C32.4433 24.3754 30.8871 24.908 29.5033 25.9731C29.5009 25.9745 29.4988 25.9769 29.4956 25.9779C21.7843 22.3332 10.6465 12.808 8.20572 4.7421C9.62372 6.93242 12.6786 9.27322 14.769 9.20038C15.5443 8.4226 16.2479 7.74648 17.1021 7.04688C18.9941 5.4972 21.0837 4.20126 23.3231 3.22017C26.5572 1.80523 30.2834 1.07789 34 0.977295ZM27.166 29.4911C24.7371 28.2702 21.6459 26.4729 18.5516 24.0104C17.8991 25.3762 17.8276 26.5681 18.1635 27.5305C18.402 28.2088 18.8509 28.7987 19.441 29.2681C20.0805 29.7753 20.8788 30.1446 21.7613 30.3441C23.4358 30.7244 25.3906 30.5024 27.166 29.4911Z" fill="black"/>
<path fill-rule="evenodd" clip-rule="evenodd" d="M52.838 20.9929C54.5416 19.2599 56.0427 17.3418 57.2497 15.6301L57.8628 16.7932C59.8364 20.7733 60.8619 24.7374 60.8619 29.1987L60.8576 36.2779L60.8947 39.9477C61.0376 48.9571 62.9715 58.0724 67.3523 66.4142L58.1865 58.9641L51.7011 69.5726L44.8877 63.1073L34 80.9172L23.1123 63.1076L16.2992 69.5728L9.81374 58.9644L0.647675 66.4145C5.02848 58.0727 6.96238 48.9574 7.10558 39.948L7.14264 36.2781L7.13841 29.1989C7.13841 24.7374 8.16359 20.7733 10.1377 16.7935L10.7505 15.6304C11.9576 17.342 13.4584 19.2599 15.1623 20.9932L14.6302 22.1071C13.5966 24.2708 13.2543 26.69 14.0595 28.9908C14.5786 30.4727 15.526 31.7436 16.7473 32.7137C17.9332 33.6559 19.3366 34.2909 20.806 34.6244C21.7631 34.8416 22.7383 34.931 23.7071 34.9006C23.481 36.1922 23.3823 37.5319 23.376 38.897L14.7298 43.9308L21.4018 47.7007C21.9351 48.002 22.4428 48.3473 22.9196 48.733C28.4204 53.7113 31.7275 68.4389 34.0003 75.6326C36.2733 68.4389 39.5802 53.7113 45.0812 48.733C45.558 48.3473 46.0657 48.002 46.599 47.7007L53.271 43.9308L44.6246 38.897C44.6182 37.5319 44.5195 36.1922 44.2934 34.9006C45.2622 34.931 46.2374 34.8416 47.1945 34.6244C48.6639 34.2909 50.0676 33.6559 51.2532 32.7137C52.4743 31.7436 53.4219 30.4727 53.9407 28.9908C54.7462 26.69 54.4037 24.271 53.3703 22.1071L52.8382 20.9932L52.838 20.9929Z" fill="black"/>
</g>
<defs>
<clipPath id="clip0_3_56">
<rect width="66.7046" height="80.0456" fill="white" transform="translate(0.647675 0.977295)"/>
</clipPath>
</defs>
</svg>
