<svg width="635" height="635" viewBox="0 0 635 635" fill="none" xmlns="http://www.w3.org/2000/svg">
<path d="M527.328 424.595C586.581 308.605 540.586 166.541 424.595 107.288C308.605 48.0344 166.541 94.0292 107.288 210.02C48.0343 326.011 94.0291 468.074 210.02 527.328C326.011 586.581 468.074 540.586 527.328 424.595Z" stroke="#0C0C0C" stroke-width="12" stroke-miterlimit="10"/>
<path d="M219.883 147.947C150.74 187.169 118.594 279.765 156.704 299.78C186.221 315.348 200.98 230.03 265.07 198.794C329.058 167.558 380.006 187.27 384.858 153.608C389.811 119.946 296.204 104.581 219.883 147.846V147.947Z" fill="#0C0C0C"/>
<path d="M176.921 355.277C176.921 370.34 164.69 382.571 149.628 382.571C134.566 382.571 122.334 370.34 122.334 355.277C122.334 340.215 134.566 327.984 149.628 327.984C164.69 327.984 176.921 340.215 176.921 355.277Z" fill="#0C0C0C"/>
<path d="M485.137 280.776C493.224 295.535 497.874 312.214 499.997 329.298C501.412 346.382 500.906 364.173 496.863 381.358C492.819 398.543 485.946 415.121 476.544 430.385C466.84 445.447 454.811 458.892 441.164 470.416C427.214 481.637 411.444 490.633 394.765 497.002C377.984 503.269 360.294 506.504 342.604 507.009C307.425 508.223 272.146 496.901 246.469 475.268C278.312 485.579 310.256 488.409 340.481 483.355C355.543 480.423 370.2 476.582 383.847 470.315C397.393 463.946 410.332 456.264 421.957 446.862C433.481 437.259 443.691 426.342 452.688 414.312C461.381 402.081 468.457 388.636 474.32 374.484C479.678 360.129 483.216 344.966 485.238 329.298C487.26 313.528 486.855 297.354 485.238 280.675L485.137 280.776Z" fill="#0C0C0C"/>
</svg>
