<svg width="32" height="32" viewBox="0 0 32 32" fill="none" xmlns="http://www.w3.org/2000/svg">
<path fill-rule="evenodd" clip-rule="evenodd" d="M25.4343 25.7202V25.7176L25.4583 25.6602L29.457 5.50024V5.43624C29.457 4.93357 29.2703 4.49491 28.8677 4.23224C28.5143 4.00157 28.1077 3.98557 27.8223 4.00691C27.5567 4.03093 27.2947 4.08459 27.041 4.16691C26.9328 4.20178 26.8261 4.24092 26.721 4.28424L26.7037 4.29091L4.41033 13.0362L4.40366 13.0389C4.33588 13.0621 4.26954 13.0892 4.20499 13.1202C4.04644 13.1915 3.89433 13.2762 3.75033 13.3736C3.46366 13.5709 2.91833 14.0349 3.01033 14.7709C3.08633 15.3816 3.50633 15.7682 3.79033 15.9696C3.95796 16.087 4.13819 16.1854 4.32766 16.2629L4.37033 16.2816L4.38366 16.2856L4.39299 16.2896L8.29433 17.6029C8.28099 17.8469 8.30499 18.0962 8.37033 18.3429L10.3237 25.7549C10.4304 26.1589 10.661 26.5194 10.983 26.7856C11.3051 27.0519 11.7025 27.2106 12.1194 27.2394C12.5362 27.2683 12.9517 27.1658 13.3073 26.9464C13.663 26.727 13.941 26.4017 14.1023 26.0162L17.153 22.7549L22.3917 26.7709L22.4663 26.8029C22.9423 27.0109 23.3863 27.0762 23.793 27.0216C24.1997 26.9656 24.5223 26.7949 24.765 26.6016C25.0457 26.374 25.2694 26.0841 25.4183 25.7549L25.429 25.7322L25.433 25.7242L25.4343 25.7202ZM10.3037 17.8336C10.282 17.7513 10.2872 17.6643 10.3183 17.5852C10.3495 17.5061 10.4051 17.439 10.477 17.3936L23.705 8.99357C23.705 8.99357 24.4837 8.52024 24.4557 8.99357C24.4557 8.99357 24.5943 9.07624 24.177 9.46424C23.7823 9.83357 14.749 18.5549 13.8343 19.4376C13.7835 19.487 13.7478 19.5499 13.7317 19.6189L12.257 25.2456L10.3037 17.8336Z" fill="#002E20"/>
</svg>
