<svg width="80" height="70" viewBox="0 0 80 70" fill="none" xmlns="http://www.w3.org/2000/svg">
<path fill-rule="evenodd" clip-rule="evenodd" d="M67.6483 65.1734V65.1654L67.7203 64.9934L79.7163 4.51341V4.32141C79.7163 2.81341 79.1563 1.49741 77.9483 0.709414C76.8884 0.0174139 75.6684 -0.0305857 74.8123 0.0334143C74.0156 0.105478 73.2293 0.26648 72.4683 0.513414C72.1438 0.618034 71.8236 0.735459 71.5083 0.865414L71.4563 0.885414L4.57634 27.1214L4.55634 27.1294C4.35301 27.1988 4.15399 27.2803 3.96035 27.3734C3.4847 27.5871 3.02835 27.8414 2.59634 28.1334C1.73634 28.7254 0.100345 30.1174 0.376345 32.3254C0.604345 34.1574 1.86434 35.3174 2.71634 35.9214C3.21924 36.2738 3.75993 36.569 4.32835 36.8014L4.45634 36.8574L4.49634 36.8694L4.52434 36.8814L16.2283 40.8214C16.1883 41.5534 16.2603 42.3014 16.4563 43.0414L22.3163 65.2774C22.6365 66.4895 23.3282 67.5708 24.2944 68.3696C25.2607 69.1684 26.4528 69.6445 27.7034 69.7309C28.9541 69.8174 30.2004 69.51 31.2674 68.8519C32.3344 68.1937 33.1684 67.2179 33.6523 66.0614L42.8043 56.2774L58.5203 68.3254L58.7443 68.4214C60.1723 69.0454 61.5043 69.2414 62.7243 69.0774C63.9443 68.9094 64.9124 68.3974 65.6404 67.8174C66.4824 67.1347 67.1535 66.265 67.6003 65.2774L67.6323 65.2094L67.6443 65.1854L67.6483 65.1734ZM22.2563 41.5134C22.1915 41.2667 22.2069 41.0057 22.3004 40.7683C22.3939 40.531 22.5606 40.3296 22.7763 40.1934L62.4603 14.9934C62.4603 14.9934 64.7963 13.5734 64.7123 14.9934C64.7123 14.9934 65.1283 15.2414 63.8763 16.4054C62.6923 17.5134 35.5923 43.6774 32.8483 46.3254C32.6958 46.4736 32.5889 46.6624 32.5403 46.8694L28.1163 63.7494L22.2563 41.5134Z" fill="black"/>
</svg>
